PathFileType	4	(X/Y/Z)	D:\TRACE\spot_10-12-23\spot_arm_body_motion_1_8-v60.trc
DataRate	CameraRate	NumFrames	NumMarkers	Units	OrigDataRate	OrigDataStartFrame	OrigNumFrames
100.00	100.00	      39	9	mm	100.00	876	      7000
Frame#	Time	front left toe			Front right toe			aft left toe			aft right toe			Arm			FL body			FR body			AL Body			AR Body			
		X1	Y1	Z1	X2	Y2	Z2	X3	Y3	Z3	X4	Y4	Z4	X5	Y5	Z5	X6	Y6	Z6	X7	Y7	Z7	X8	Y8	Z8	X9	Y9	Z9	

876	8.750	-142.24190	20.31133	-418.73984	185.25562	21.98436	-368.34198	-183.50352	22.09991	209.76276	138.18294	41.87595	293.29578	97.53414	757.27832	-738.53015	-83.24535	600.88239	-472.75858	70.24384	602.91254	-484.48071	-20.40956	558.56116	406.00549	120.72392	554.92871	398.76865	
877	8.760	-143.36330	20.85840	-418.91364	185.24733	21.99659	-367.25000	-184.21849	22.03733	209.30269	144.94154	54.75465	292.61877	97.99848	756.85675	-738.53619	-83.40437	601.15411	-475.57095	70.26298	602.91205	-487.09473	-24.17849	558.74786	403.49496	116.84792	555.11023	396.19339	
878	8.770	-144.41774	20.28207	-419.26047	186.06125	21.69685	-366.56876	-186.36578	22.15085	209.10265	155.05605	66.15481	285.59836	98.00941	756.05511	-739.03735	-82.98654	600.32831	-478.14185	70.85323	602.18530	-489.02731	-27.96980	559.76569	401.10327	113.05562	555.96301	394.75574	
879	8.780	-145.50961	19.71549	-419.77753	185.20085	21.42257	-366.50864	-187.66582	21.29851	208.79881	158.29645	76.79307	275.73416	97.27801	754.89471	-739.46643	-82.20258	599.30713	-480.90237	71.47424	601.24127	-490.72662	-31.78065	560.06659	399.05396	109.24007	556.52563	393.15408	
880	8.790	-146.31825	19.91851	-420.05518	184.10931	21.42902	-366.10419	-189.42603	20.52926	209.04428	159.90160	87.40672	267.07349	96.05133	754.06104	-740.01941	-81.51753	598.69189	-483.15945	71.94657	600.79510	-491.86966	-36.03188	560.12073	397.10843	106.07401	556.73267	392.37811	
881	8.800	-146.69360	20.81927	-419.95966	181.62213	20.77946	-367.30685	-191.12279	20.02355	208.27057	159.58455	96.94166	262.29276	93.90420	754.22778	-740.55048	-80.98379	598.41284	-485.22598	72.33695	600.33160	-492.77200	-38.87159	560.16156	395.29208	103.03352	556.46454	390.32208	
882	8.810	-147.23521	22.13142	-420.16745	182.90056	21.61104	-365.76114	-192.27278	19.16040	208.73416	163.27034	106.90272	259.99567	91.69293	755.11243	-740.74750	-80.93801	598.61823	-487.11969	72.69013	600.19592	-494.34512	-41.01934	559.75995	393.62656	101.00098	556.21112	389.60251	
883	8.820	-147.99059	22.85943	-419.91306	181.86128	21.76609	-365.70001	-193.36787	19.87455	208.31201	170.63147	115.82303	258.48383	89.39311	755.85571	-740.80383	-81.45799	598.45941	-488.96011	72.27396	599.68280	-495.87091	-42.91565	559.37787	391.88190	98.97478	555.78888	387.97925	
884	8.830	-149.00702	22.64633	-420.02374	181.33177	22.06841	-365.34238	-194.02849	19.34454	208.68655	182.00520	124.12372	255.70302	87.65291	756.73389	-740.61676	-82.03831	597.66296	-490.32947	71.60117	599.66095	-497.67966	-44.76417	558.77332	390.13095	97.35387	555.39453	386.85669	
885	8.840	-150.19629	22.07860	-420.08755	179.93091	22.66773	-365.31757	-194.53893	19.29841	208.57521	192.82579	130.22878	251.19257	86.73403	757.11243	-740.03168	-83.29903	596.77374	-491.54492	70.40793	599.12280	-499.45718	-45.76022	558.57831	389.02191	95.89632	555.28192	385.05688	
886	8.850	-151.61197	21.47204	-419.47763	178.85101	23.55767	-365.40445	-194.58562	19.41932	208.70198	201.01909	134.42548	245.53894	87.33031	757.21851	-739.39948	-84.76551	595.54181	-492.51917	68.71861	598.39600	-500.32495	-46.06549	558.65051	387.97964	95.86651	555.54773	384.25671	
887	8.860	-152.96222	21.61315	-419.23785	177.72133	23.80658	-365.65314	-195.00964	19.92200	208.85899	206.44432	135.33577	239.98473	88.63435	757.40466	-738.81219	-86.81619	595.10040	-493.18948	66.82380	598.04443	-501.27487	-45.87964	558.75195	387.22006	95.72676	555.86438	382.73944	
888	8.870	-154.14850	22.06259	-419.12411	176.19821	24.05407	-365.89218	-195.90358	20.70865	208.55058	210.95738	134.93214	233.89507	90.16504	757.60303	-738.21472	-88.87952	595.00323	-494.08868	64.87492	597.40808	-501.73843	-45.53580	558.54510	386.59778	96.60153	555.78687	381.81400	
889	8.880	-155.30333	22.68533	-418.90778	175.28398	24.21733	-366.13370	-196.60786	20.71030	208.53487	215.58119	133.92844	227.77850	91.18658	757.76563	-737.56274	-90.59394	594.88251	-494.48099	62.79128	597.35736	-502.60846	-45.02126	558.42603	386.25229	96.36653	555.37372	380.60403	
890	8.890	-156.33629	23.07196	-418.74316	174.49965	24.47777	-366.19339	-197.52052	20.20653	208.91182	221.89975	133.85989	222.25554	91.79093	757.92645	-736.77435	-92.19875	594.92072	-494.81973	61.56240	598.17023	-504.38373	-45.34785	557.42511	385.41513	96.34615	554.35889	379.63504	
891	8.900	-157.34682	23.44177	-418.40891	173.42416	24.60826	-365.85126	-198.25609	19.62356	208.86656	228.76611	134.50331	217.91808	92.16399	758.20135	-736.06927	-93.04842	594.99365	-495.27631	60.74035	598.20898	-504.73065	-45.76095	556.27148	384.79007	96.36942	553.18866	379.61502	
892	8.910	-158.16331	24.21272	-418.12802	172.40546	24.61024	-365.70248	-199.10555	19.57741	209.04196	235.74474	135.61433	213.95825	92.22797	758.51611	-735.78174	-93.42110	595.09100	-495.48584	60.10400	598.40240	-505.04736	-45.50689	555.30090	384.30008	95.49444	552.42633	378.69705	
893	8.920	-158.70285	24.92737	-418.25134	171.82294	24.88459	-365.52139	-199.86298	19.38342	209.40031	243.43057	136.86787	209.46289	91.40636	758.93103	-735.76624	-93.68984	595.35242	-495.85236	59.90240	598.53973	-505.35922	-46.93054	555.01324	384.19995	94.75790	552.07050	378.79861	
894	8.930	-159.51164	25.69151	-418.40924	171.25574	24.84059	-365.61328	-201.17570	19.78493	209.07805	249.62616	137.90421	204.49184	90.10995	759.26300	-735.98969	-93.51063	595.13464	-496.22186	60.02595	598.00421	-505.01163	-47.88920	554.76245	383.90112	94.22380	551.93921	379.23596	
895	8.940	-160.15048	25.95141	-418.57748	170.44954	24.68825	-365.25043	-202.37540	20.01682	208.75226	252.41389	137.61212	201.04326	88.45603	759.93738	-736.31842	-93.14905	594.19537	-496.53226	60.63177	597.14221	-505.46240	-49.05016	554.77124	383.72516	93.06644	551.99292	379.13626	
896	8.950	-160.84373	25.45484	-418.76614	169.73117	24.65499	-364.91003	-202.56693	19.59833	208.93504	253.25380	134.09763	201.21033	86.20343	761.51465	-736.56317	-92.24049	592.67816	-496.91086	61.17551	596.03320	-505.53055	-49.50365	554.65656	383.38297	91.57121	552.02417	378.75571	
897	8.960	-161.79742	25.49702	-418.51559	169.16566	24.95806	-364.54449	-203.88329	19.96755	209.10216	250.93120	127.26623	204.57736	83.62613	764.30188	-736.20862	-91.93695	592.00201	-496.97794	61.47035	595.11969	-505.39105	-50.83357	555.16510	383.70880	90.76833	552.10748	378.86612	
898	8.970	-162.76241	26.09420	-418.40994	167.89957	24.91903	-364.67746	-205.05432	19.68934	208.94164	248.27975	117.92401	209.20616	80.66914	768.31482	-735.18372	-91.80199	591.76788	-497.00098	61.78707	594.62128	-505.22113	-51.38889	555.27374	383.80325	90.35155	552.14612	379.15558	
899	8.980	-163.43109	26.94065	-418.33252	166.86147	24.99103	-364.28635	-206.42140	19.46974	209.27058	246.73111	106.95631	212.62093	77.46435	772.67944	-733.49438	-91.78245	591.86554	-496.76810	61.91387	594.66333	-504.87073	-52.10289	554.90344	383.94580	89.38196	551.75323	379.49500	
900	8.990	-164.29144	27.69037	-418.10843	166.11891	25.45576	-363.95679	-207.85335	18.79680	209.36244	246.73206	95.91872	213.17776	74.93436	776.74396	-731.51172	-92.02721	592.17133	-496.16586	61.88021	594.87189	-504.37720	-52.53043	553.86505	384.25146	89.65553	551.04871	380.62936	
901	9.000	-164.96568	28.11092	-417.72733	165.73466	26.01124	-363.72894	-209.10707	18.67734	209.63283	248.44760	85.39088	211.65033	73.12929	780.05859	-729.39905	-92.32859	592.43512	-495.56363	61.19107	595.39178	-503.28131	-52.98370	552.55328	384.93204	88.58858	549.54095	380.60757	
902	9.010	-165.35959	28.22910	-417.43628	165.11945	26.39080	-363.55310	-209.91234	17.88858	210.07156	251.92438	75.13052	208.08356	72.02119	782.65833	-727.23242	-93.11161	593.09668	-494.45135	60.60251	596.55426	-502.66962	-53.12192	551.09705	385.83380	88.46889	548.13208	381.02502	
903	9.020	-166.49420	28.50640	-417.21552	163.32098	26.71711	-363.65350	-210.60417	17.90982	210.24759	257.18750	65.21775	202.54317	71.45633	784.75208	-725.44421	-94.16046	594.46893	-493.49869	59.40926	598.02533	-501.82703	-52.90046	549.55334	386.66696	89.08156	546.97137	382.15384	
904	9.030	-168.01759	28.81779	-416.87564	162.70636	27.51046	-363.40387	-211.14799	17.90705	210.67621	265.31357	55.88968	193.73756	71.53345	785.98932	-724.01105	-95.36098	595.77484	-492.07211	58.45830	599.63342	-500.64001	-52.62703	548.35059	387.94299	89.17197	545.88068	382.84448	
905	9.040	-168.99844	29.45749	-416.71332	162.23338	28.29028	-363.23306	-212.18097	18.48944	210.66455	276.02493	47.98030	183.44104	71.73479	786.09088	-722.85876	-96.41383	596.80573	-490.78369	57.04494	600.93652	-499.17685	-52.27037	546.85870	388.89487	89.79082	544.91907	384.35263	
906	9.050	-169.82751	29.93492	-416.63232	160.50145	28.53102	-363.60934	-212.95471	18.45314	210.89241	283.56989	38.34258	173.24580	71.58839	785.50348	-722.36096	-97.52451	598.05280	-489.14661	56.03163	602.18695	-497.85257	-51.85508	545.82819	390.31717	89.81487	544.13708	385.11008	
907	9.060	-170.63020	30.12737	-416.39493	158.75497	28.62270	-363.99777	-213.57182	17.98774	211.24222	291.66486	29.57736	167.03252	71.33424	784.31256	-722.04437	-98.17858	598.92426	-487.59717	55.15404	603.32635	-496.53583	-51.55362	545.13568	391.65823	90.02475	543.13776	386.15207	
908	9.070	-171.51701	30.25333	-416.03851	158.21037	29.32783	-363.65076	-213.58569	17.41330	211.84959	293.36508	22.43376	163.63652	70.68201	783.11615	-722.00043	-98.97918	599.78094	-486.17892	54.67804	604.47253	-495.72882	-50.63181	544.64587	393.12976	90.70753	542.75000	387.30383	
909	9.080	-172.78128	30.03879	-415.48962	158.44569	30.27100	-362.77490	-214.11128	18.88434	211.23129	292.78098	21.90800	165.54041	69.81494	781.96417	-722.05371	-99.07024	600.28296	-485.12967	54.47595	604.92090	-494.29086	-50.55536	545.61163	394.32007	91.26385	544.17438	388.84048	
910	9.090	-174.47635	29.31172	-415.43661	155.88712	30.10706	-362.80313	-215.48759	18.97575	211.12938	293.12173	24.36465	165.82671	69.07737	780.59888	-722.38831	-98.64410	600.06897	-483.92325	54.98018	604.79639	-493.41873	-50.82071	547.18372	395.36655	90.92854	545.63275	389.56293	
911	9.100	-175.62561	29.77452	-415.12787	155.20415	30.20685	-362.47821	-216.90744	18.24639	211.82516	291.66849	23.69872	167.42291	67.73788	778.85730	-722.93842	-98.12221	600.37421	-483.02609	55.60917	604.73285	-491.82913	-50.67344	547.93646	396.53458	91.01438	546.53174	391.09949	
912	9.110	-176.08247	29.81423	-415.45297	153.89928	33.08665	-360.89853	-218.19598	18.59805	211.89932	290.98581	22.50054	167.82986	66.24531	777.48804	-723.47943	-97.52006	600.46191	-481.98816	56.24625	604.74023	-491.19443	-51.21694	548.45764	397.35480	90.70921	546.79999	392.38394	
913	9.120	-177.25583	29.55335	-415.14407	154.22258	43.24990	-357.82007	-218.82878	18.51531	211.97128	290.92117	22.20947	167.53905	65.31053	776.66125	-723.61359	-96.65884	600.40875	-481.37842	56.96788	604.28644	-490.50885	-51.37542	548.95648	398.11847	90.55712	547.07159	393.01431	
914	9.130	-178.20259	29.64666	-415.18961	148.00029	53.37221	-355.85693	-219.39967	18.25579	212.19890	288.91516	22.20058	168.19493	64.80299	776.58276	-723.59027	-95.91051	600.65112	-480.93048	57.65533	603.56873	-489.48456	-50.97755	549.95581	398.85052	90.61298	547.20416	393.34183	
